<svg width="39" height="29" viewBox="0 0 39 29" fill="none" xmlns="http://www.w3.org/2000/svg">
<path fill-rule="evenodd" clip-rule="evenodd" d="M37.8901 1.78321C38.4313 2.32458 38.7354 3.05874 38.7354 3.82423C38.7354 4.58973 38.4313 5.32388 37.8901 5.86525L16.252 27.5033C15.9661 27.7894 15.6266 28.0162 15.2529 28.171C14.8793 28.3258 14.4788 28.4055 14.0744 28.4055C13.6699 28.4055 13.2694 28.3258 12.8958 28.171C12.5221 28.0162 12.1826 27.7894 11.8967 27.5033L1.14598 16.7545C0.870251 16.4882 0.650323 16.1697 0.499025 15.8175C0.347726 15.4653 0.268088 15.0864 0.264757 14.7031C0.261427 14.3198 0.33447 13.9397 0.479624 13.5849C0.624779 13.2301 0.839138 12.9078 1.11019 12.6367C1.38125 12.3657 1.70358 12.1513 2.05836 12.0061C2.41315 11.861 2.79329 11.788 3.17661 11.7913C3.55993 11.7946 3.93874 11.8743 4.29095 12.0255C4.64316 12.1768 4.96171 12.3968 5.22802 12.6725L14.0734 21.5179L33.8061 1.78321C34.0742 1.51494 34.3926 1.30213 34.7429 1.15694C35.0933 1.01174 35.4689 0.937012 35.8481 0.937012C36.2274 0.937012 36.6029 1.01174 36.9533 1.15694C37.3037 1.30213 37.622 1.51494 37.8901 1.78321Z" fill="#86E47D"/>
</svg>
