<svg width="138" height="25" viewBox="0 0 138 25" fill="none" xmlns="http://www.w3.org/2000/svg">
<path d="M6.35952 22.3081L7.84179 15.9002L7.97904 15.3068L7.51887 14.9078L2.54648 10.5969L9.12014 10.0263L9.72723 9.97358L9.96446 9.41228L12.515 3.37758L15.0655 9.41228L15.3027 9.97358L15.9098 10.0263L22.4835 10.5969L17.5111 14.9078L17.0509 15.3068L17.1882 15.9002L18.6704 22.3081L13.0375 18.9101L12.515 18.5949L11.9924 18.9101L6.35952 22.3081Z" fill="#FFB600" stroke="#FFB600" stroke-width="2.02321"/>
<path d="M34.6056 22.3084L36.0879 15.9004L36.2251 15.307L35.765 14.9081L30.7926 10.5972L37.3662 10.0265L37.9733 9.97383L38.2105 9.41253L40.7611 3.37782L43.3116 9.41253L43.5488 9.97383L44.1559 10.0265L50.7296 10.5972L45.7572 14.9081L45.297 15.307L45.4342 15.9004L46.9165 22.3084L41.2836 18.9104L40.7611 18.5952L40.2385 18.9104L34.6056 22.3084Z" fill="#FFB600" stroke="#FFB600" stroke-width="2.02321"/>
<path d="M62.8517 22.3081L64.334 15.9002L64.4712 15.3068L64.0111 14.9078L59.0387 10.5969L65.6123 10.0263L66.2194 9.97358L66.4566 9.41228L69.0072 3.37758L71.5577 9.41228L71.7949 9.97358L72.402 10.0263L78.9757 10.5969L74.0033 14.9078L73.5431 15.3068L73.6803 15.9002L75.1626 22.3081L69.5297 18.9101L69.0072 18.5949L68.4846 18.9101L62.8517 22.3081Z" stroke="#FFB600" stroke-width="2.02321"/>
<path d="M91.0978 22.3084L92.5801 15.9004L92.7173 15.307L92.2572 14.9081L87.2848 10.5972L93.8584 10.0265L94.4655 9.97383L94.7027 9.41253L97.2533 3.37782L99.8038 9.41253L100.041 9.97383L100.648 10.0265L107.222 10.5972L102.249 14.9081L101.789 15.307L101.926 15.9004L103.409 22.3084L97.7758 18.9104L97.2533 18.5952L96.7307 18.9104L91.0978 22.3084Z" stroke="#FFB600" stroke-width="2.02321"/>
<path d="M119.342 22.2215L120.824 15.8135L120.961 15.2201L120.501 14.8212L115.529 10.5102L122.103 9.93961L122.71 9.88691L122.947 9.32561L125.497 3.29091L128.048 9.32561L128.285 9.88691L128.892 9.93961L135.466 10.5102L130.493 14.8212L130.033 15.2201L130.171 15.8135L131.653 22.2215L126.02 18.8235L125.497 18.5083L124.975 18.8235L119.342 22.2215Z" stroke="#FFB600" stroke-width="2.02321"/>
</svg>
