<svg width="139" height="25" viewBox="0 0 139 25" fill="none" xmlns="http://www.w3.org/2000/svg">
<path d="M6.52944 22.3081L8.01171 15.9002L8.14896 15.3068L7.68879 14.9078L2.7164 10.5969L9.29006 10.0263L9.89715 9.97358L10.1344 9.41228L12.6849 3.37758L15.2354 9.41228L15.4726 9.97358L16.0797 10.0263L22.6534 10.5969L17.681 14.9078L17.2208 15.3068L17.3581 15.9002L18.8404 22.3081L13.2074 18.9101L12.6849 18.5949L12.1624 18.9101L6.52944 22.3081Z" fill="#FFB600" stroke="#FFB600" stroke-width="2.02321"/>
<path d="M34.7755 22.3084L36.2578 15.9004L36.3951 15.307L35.9349 14.9081L30.9625 10.5972L37.5362 10.0265L38.1432 9.97383L38.3805 9.41253L40.931 3.37782L43.4815 9.41253L43.7187 9.97383L44.3258 10.0265L50.8995 10.5972L45.9271 14.9081L45.4669 15.307L45.6042 15.9004L47.0864 22.3084L41.4535 18.9104L40.931 18.5952L40.4085 18.9104L34.7755 22.3084Z" fill="#FFB600" stroke="#FFB600" stroke-width="2.02321"/>
<path d="M63.0216 22.3081L64.5039 15.9002L64.6412 15.3068L64.181 14.9078L59.2086 10.5969L65.7822 10.0263L66.3893 9.97358L66.6266 9.41228L69.1771 3.37758L71.7276 9.41228L71.9648 9.97358L72.5719 10.0263L79.1456 10.5969L74.1732 14.9078L73.713 15.3068L73.8503 15.9002L75.3325 22.3081L69.6996 18.9101L69.1771 18.5949L68.6546 18.9101L63.0216 22.3081Z" fill="#FFB600" stroke="#FFB600" stroke-width="2.02321"/>
<path d="M91.2677 22.3084L92.75 15.9004L92.8872 15.307L92.4271 14.9081L87.4547 10.5972L94.0283 10.0265L94.6354 9.97383L94.8727 9.41253L97.4232 3.37782L99.9737 9.41253L100.211 9.97383L100.818 10.0265L107.392 10.5972L102.419 14.9081L101.959 15.307L102.096 15.9004L103.579 22.3084L97.9457 18.9104L97.4232 18.5952L96.9006 18.9104L91.2677 22.3084Z" stroke="#FFB600" stroke-width="2.02321"/>
<path d="M119.512 22.2215L120.994 15.8135L121.131 15.2201L120.671 14.8212L115.699 10.5102L122.272 9.93961L122.88 9.88691L123.117 9.32561L125.667 3.29091L128.218 9.32561L128.455 9.88691L129.062 9.93961L135.636 10.5102L130.663 14.8212L130.203 15.2201L130.34 15.8135L131.823 22.2215L126.19 18.8235L125.667 18.5083L125.145 18.8235L119.512 22.2215Z" stroke="#FFB600" stroke-width="2.02321"/>
</svg>
