<svg width="139" height="25" viewBox="0 0 139 25" fill="none" xmlns="http://www.w3.org/2000/svg">
<path d="M7.11342 22.3081L8.59569 15.9002L8.73295 15.3068L8.27278 14.9078L3.30039 10.5969L9.87405 10.0263L10.4811 9.97358L10.7184 9.41228L13.2689 3.37758L15.8194 9.41228L16.0566 9.97358L16.6637 10.0263L23.2374 10.5969L18.265 14.9078L17.8048 15.3068L17.9421 15.9002L19.4243 22.3081L13.7914 18.9101L13.2689 18.5949L12.7464 18.9101L7.11342 22.3081Z" fill="#FFB600" stroke="#FFB600" stroke-width="2.02321"/>
<path d="M35.3595 22.3084L36.8418 15.9004L36.979 15.307L36.5189 14.9081L31.5465 10.5972L38.1201 10.0265L38.7272 9.97383L38.9645 9.41253L41.515 3.37782L44.0655 9.41253L44.3027 9.97383L44.9098 10.0265L51.4835 10.5972L46.5111 14.9081L46.0509 15.307L46.1882 15.9004L47.6704 22.3084L42.0375 18.9104L41.515 18.5952L40.9924 18.9104L35.3595 22.3084Z" fill="#FFB600" stroke="#FFB600" stroke-width="2.02321"/>
<path d="M63.6056 22.3081L65.0879 15.9002L65.2251 15.3068L64.765 14.9078L59.7926 10.5969L66.3662 10.0263L66.9733 9.97358L67.2105 9.41228L69.7611 3.37758L72.3116 9.41228L72.5488 9.97358L73.1559 10.0263L79.7296 10.5969L74.7572 14.9078L74.297 15.3068L74.4342 15.9002L75.9165 22.3081L70.2836 18.9101L69.7611 18.5949L69.2385 18.9101L63.6056 22.3081Z" fill="#FFB600" stroke="#FFB600" stroke-width="2.02321"/>
<path d="M91.8517 22.3084L93.334 15.9004L93.4712 15.307L93.0111 14.9081L88.0387 10.5972L94.6123 10.0265L95.2194 9.97383L95.4566 9.41253L98.0072 3.37782L100.558 9.41253L100.795 9.97383L101.402 10.0265L107.976 10.5972L103.003 14.9081L102.543 15.307L102.68 15.9004L104.163 22.3084L98.5297 18.9104L98.0072 18.5952L97.4846 18.9104L91.8517 22.3084Z" fill="#FFB600" stroke="#FFB600" stroke-width="2.02321"/>
<path d="M120.096 22.2215L121.578 15.8135L121.715 15.2201L121.255 14.8212L116.283 10.5102L122.856 9.93961L123.464 9.88691L123.701 9.32561L126.251 3.29091L128.802 9.32561L129.039 9.88691L129.646 9.93961L136.22 10.5102L131.247 14.8212L130.787 15.2201L130.924 15.8135L132.407 22.2215L126.774 18.8235L126.251 18.5083L125.729 18.8235L120.096 22.2215Z" fill="#FFB600" stroke="#FFB600" stroke-width="2.02321"/>
</svg>
