<svg width="20" height="13" viewBox="0 0 20 13" fill="none" xmlns="http://www.w3.org/2000/svg">
<g filter="url(#filter0_ii_116_112)">
<path d="M8.81515 12.6256C8.90313 12.7411 9.02085 12.8355 9.15817 12.9007C9.2955 12.9659 9.44831 13 9.60344 13C9.75857 13 9.91138 12.9659 10.0487 12.9007C10.186 12.8355 10.3037 12.7411 10.3917 12.6256L19.0226 1.35971C19.1225 1.22977 19.1811 1.07757 19.192 0.919649C19.2029 0.76173 19.1657 0.604132 19.0844 0.463976C19.0032 0.32382 18.881 0.206468 18.7311 0.124669C18.5812 0.0428694 18.4094 -0.000248148 18.2343 1.07429e-06H0.972561C0.797875 0.000653117 0.626691 0.0443251 0.477417 0.12632C0.328144 0.208315 0.206429 0.325531 0.125362 0.465363C0.044295 0.605195 0.00694314 0.762351 0.0173232 0.919931C0.0277032 1.07751 0.0854224 1.22955 0.184274 1.35971L8.81515 12.6256Z" fill="#6B88C0"/>
</g>
<defs>
<filter id="filter0_ii_116_112" x="-1.98438" y="-1" width="23.1787" height="15" filterUnits="userSpaceOnUse" color-interpolation-filters="sRGB">
<feFlood flood-opacity="0" result="BackgroundImageFix"/>
<feBlend mode="normal" in="SourceGraphic" in2="BackgroundImageFix" result="shape"/>
<feColorMatrix in="SourceAlpha" type="matrix" values="0 0 0 0 0 0 0 0 0 0 0 0 0 0 0 0 0 0 127 0" result="hardAlpha"/>
<feOffset dx="2" dy="1"/>
<feGaussianBlur stdDeviation="2"/>
<feComposite in2="hardAlpha" operator="arithmetic" k2="-1" k3="1"/>
<feColorMatrix type="matrix" values="0 0 0 0 0.207843 0 0 0 0 0.313726 0 0 0 0 0.631373 0 0 0 1 0"/>
<feBlend mode="normal" in2="shape" result="effect1_innerShadow_116_112"/>
<feColorMatrix in="SourceAlpha" type="matrix" values="0 0 0 0 0 0 0 0 0 0 0 0 0 0 0 0 0 0 127 0" result="hardAlpha"/>
<feOffset dx="-2" dy="-1"/>
<feGaussianBlur stdDeviation="2"/>
<feComposite in2="hardAlpha" operator="arithmetic" k2="-1" k3="1"/>
<feColorMatrix type="matrix" values="0 0 0 0 0.207843 0 0 0 0 0.313726 0 0 0 0 0.631373 0 0 0 1 0"/>
<feBlend mode="normal" in2="effect1_innerShadow_116_112" result="effect2_innerShadow_116_112"/>
</filter>
</defs>
</svg>
