<svg width="39" height="39" viewBox="0 0 39 39" fill="none" xmlns="http://www.w3.org/2000/svg">
<path d="M5.73593 0.944236L19.235 14.4433L32.6641 1.01418C32.9608 0.698446 33.3181 0.44587 33.7147 0.271598C34.1113 0.0973256 34.5391 0.0049462 34.9723 0C35.8998 0 36.7893 0.368451 37.4451 1.0243C38.101 1.68014 38.4694 2.56966 38.4694 3.49717C38.4776 3.92593 38.398 4.35183 38.2357 4.74874C38.0733 5.14565 37.8315 5.50519 37.5252 5.8053L23.9212 19.2344L37.5252 32.8384C38.1016 33.4023 38.4396 34.1659 38.4694 34.9717C38.4694 35.8992 38.101 36.7887 37.4451 37.4446C36.7893 38.1004 35.8998 38.4689 34.9723 38.4689C34.5266 38.4873 34.0819 38.413 33.6665 38.2504C33.2511 38.0879 32.874 37.8407 32.5592 37.5246L19.235 24.0256L5.7709 37.4897C5.47541 37.7949 5.1224 38.0385 4.73225 38.2066C4.34209 38.3747 3.92252 38.4638 3.49774 38.4689C2.57023 38.4689 1.68071 38.1004 1.02487 37.4446C0.36902 36.7887 0.000569013 35.8992 0.000569013 34.9717C-0.00758462 34.5429 0.0719652 34.117 0.234337 33.7201C0.396709 33.3232 0.638478 32.9637 0.944805 32.6636L14.5488 19.2344L0.944805 5.63044C0.368419 5.06655 0.0304335 4.30296 0.000569013 3.49717C0.000569013 2.56966 0.36902 1.68014 1.02487 1.0243C1.68071 0.368451 2.57023 0 3.49774 0C4.33706 0.0104915 5.14141 0.349717 5.73593 0.944236Z" fill="#BE1B12"/>
</svg>
