<svg width="932" height="61" viewBox="0 0 932 61" fill="none" xmlns="http://www.w3.org/2000/svg">
<path fill-rule="evenodd" clip-rule="evenodd" d="M21.8521 60.2608C20.0079 59.6882 17.0991 57.0657 16.0161 54.9986C14.2277 51.585 15.0563 46.362 17.7768 43.9018C18.2949 43.4332 18.674 42.57 18.674 41.859C18.674 40.0889 20.3696 38.5361 22.3028 38.5361C23.6584 38.5361 24.7115 37.8063 31.2198 32.3589C35.7326 28.5818 38.9583 26.1816 39.522 26.1816C41.0203 26.1816 41.7952 23.7827 41.1971 20.9958L40.7178 18.7592L42.1569 17.5514C42.9484 16.8868 45.5394 14.819 47.9149 12.9551L52.2338 9.56703H58.4941C61.9376 9.56703 64.691 9.72636 64.6126 9.92105C64.4882 10.232 52.6995 20.8748 45.8939 26.8207C44.3602 28.1601 43.5235 29.2017 43.639 29.6273C43.7519 30.043 42.5833 31.5967 40.6058 33.6591C38.8365 35.5046 37.2671 37.5009 37.1175 38.0948C36.9684 38.689 37.0741 41.2255 37.3527 43.7314C38.085 50.3218 37.1137 53.8288 33.7034 56.9097C30.4172 59.8786 25.2913 61.3279 21.8521 60.2608ZM22.5082 57.0043C19.964 55.9925 17.9106 52.1456 18.4862 49.4702C20.1864 41.5719 29.9093 38.0943 33.8504 43.9755C35.1391 45.8977 34.892 49.9265 33.3307 52.4515C31.4328 55.5218 29.0565 57.0026 25.8009 57.1436C24.3413 57.2067 22.8596 57.144 22.5082 57.0043ZM52.6028 21.3489C53.7411 20.3312 56.0071 18.3182 57.6379 16.8758L60.6038 14.2532H79.3101H98.0169L97.3898 15.2117C95.7151 17.7712 90.3789 19.3526 78.3162 20.8637C70.4418 21.8499 55.2526 23.1995 52.0255 23.1995H50.5332L52.6028 21.3489ZM12.7098 22.0425C12.3584 21.9164 11.6874 21.4789 11.2188 21.0707C10.7501 20.6622 9.5343 20.2025 8.51697 20.0483C2.99027 19.2129 -0.501783 14.7759 0.0588533 9.30204C0.665926 3.3783 5.03259 -0.00341034 12.0708 -0.000427246C15.0461 0.000423431 15.7707 0.161034 17.776 1.26356C20.125 2.55481 21.0691 3.5372 24.4052 8.16246C27.0389 11.8143 27.6864 12.1525 32.8105 12.5551C36.0035 12.806 37.2918 13.0774 37.656 13.575C38.0411 14.1015 38.9486 14.2532 41.7181 14.2532H45.2847L42.5701 16.7731C40.1444 19.0246 39.7499 19.2444 38.8629 18.8405C38.1315 18.507 37.7029 18.527 37.2347 18.9151C36.6008 19.4412 34.3672 19.6027 22.7889 19.9601C17.6669 20.1182 16.771 20.2528 15.9727 20.983C14.9102 21.9543 13.6257 22.3709 12.7098 22.0425ZM47.4143 21.0435C47.1059 20.5446 50.2209 17.6336 50.7317 17.9438C51.3401 18.3127 51.0478 19.7948 50.1992 20.6434C49.2769 21.5658 47.8625 21.769 47.4143 21.0435ZM46.1099 19.6214C45.4287 17.8471 48.1871 15.4789 49.4567 16.7484C49.7165 17.0082 49.8443 17.2724 49.7399 17.3346C49.636 17.3972 48.8402 18.1031 47.9716 18.9032C46.6011 20.1659 46.3548 20.2609 46.1099 19.6214ZM7.68411 16.5597C5.1638 15.3038 3.96499 13.8532 3.4116 11.3895C2.46925 7.19582 5.75809 3.4848 10.9282 2.9067C14.6831 2.48708 18.9889 4.83612 20.4275 8.08875C23.275 14.5263 14.8467 20.1288 7.68411 16.5597ZM48.4951 7.64996V6.58492H55.0984H61.7016V7.64996V8.715H55.0984H48.4951V7.64996ZM65.1097 7.63888V6.56276L71.6065 6.68034C77.9788 6.7958 78.1058 6.81625 78.2396 7.75646L78.3755 8.715H71.7428H65.1097V7.63888ZM81.7244 7.64996V6.58492H88.1146H94.5048V7.64996V8.715H88.1146H81.7244V7.64996ZM97.913 7.64996V6.58492H104.516H111.119V7.64996V8.715H104.516H97.913V7.64996ZM114.528 7.64996V6.58492H121.131H127.734V7.64996V8.715H121.131H114.528V7.64996ZM131.142 7.63888V6.56276L137.639 6.68034C144.011 6.7958 144.138 6.81625 144.272 7.75646L144.408 8.715H137.775H131.142V7.63888ZM147.543 7.75646C147.612 6.81369 147.718 6.7958 154.023 6.68077L160.434 6.56319L160.639 7.63931L160.845 8.715H154.159C147.489 8.715 147.473 8.71287 147.543 7.75646ZM163.945 7.64996V6.58492H170.549H177.152V7.64996V8.715H170.549H163.945V7.64996ZM180.56 7.64996V6.58492H187.163H193.766V7.64996V8.715H187.163H180.56V7.64996ZM197.175 7.63888V6.56276L203.671 6.68034C210.044 6.7958 210.171 6.81625 210.304 7.75646L210.44 8.715H203.808H197.175V7.63888ZM213.576 7.75646C213.645 6.81326 213.749 6.79622 220.108 6.68034L226.57 6.56276V7.63888V8.715H220.038C213.527 8.715 213.506 8.71202 213.576 7.75646ZM230.055 7.75646C230.188 6.81625 230.315 6.7958 236.688 6.68034L243.184 6.56276V7.63888V8.715H236.551H229.919L230.055 7.75646ZM246.592 7.64996V6.58492H253.196H259.799V7.64996V8.715H253.196H246.592V7.64996ZM263.207 7.63888V6.56276L269.704 6.68034C276.076 6.7958 276.203 6.81625 276.337 7.75646L276.473 8.715H269.84H263.207V7.63888ZM279.608 7.75646C279.677 6.81326 279.782 6.79622 286.14 6.68034L292.602 6.56276V7.63888V8.715H286.07C279.559 8.715 279.538 8.71202 279.608 7.75646ZM296.01 7.64996V6.58492H302.614H309.217V7.64996V8.715H302.614H296.01V7.64996ZM312.625 7.64996V6.58492H319.228H325.831V7.64996V8.715H319.228H312.625V7.64996ZM329.24 7.63888V6.56276L335.736 6.68034C342.109 6.7958 342.236 6.81625 342.369 7.75646L342.505 8.715H335.873H329.24V7.63888ZM345.641 7.75646C345.71 6.81326 345.814 6.79622 352.173 6.68034L358.635 6.56276V7.63888V8.715H352.102C345.592 8.715 345.571 8.71202 345.641 7.75646ZM362.043 7.64996V6.58492H368.646H375.249V7.64996V8.715H368.646H362.043V7.64996ZM378.657 7.64996V6.58492H385.261H391.864V7.64996V8.715H385.261H378.657V7.64996Z" fill="#FFFBFB"/>
<path d="M401.809 6.68034C395.45 6.79622 395.346 6.81326 395.277 7.75646C395.207 8.71202 395.228 8.715 401.739 8.715H408.271V7.63888V6.56276L401.809 6.68034Z" fill="#FFFBFB"/>
<path d="M411.679 6.58492V7.64996V8.715H418.282H424.885V7.64996V6.58492H418.282H411.679Z" fill="#FFFBFB"/>
<path d="M428.294 6.58492V7.64996V8.715H434.897H441.5V7.64996V6.58492H434.897H428.294Z" fill="#FFFBFB"/>
<path d="M445.5 6.58492V7.64996V8.715H452.103H458.706V7.64996V6.58492H452.103H445.5Z" fill="#FFFBFB"/>
<path d="M462.115 6.58492V7.64996V8.715H468.718H475.321V7.64996V6.58492H468.718H462.115Z" fill="#FFFBFB"/>
<path d="M479 6.58492V7.64996V8.715H485.603H492.206V7.64996V6.58492H485.603H479Z" fill="#FFFBFB"/>
<path d="M495.615 6.58492V7.64996V8.715H502.218H508.821V7.64996V6.58492H502.218H495.615Z" fill="#FFFBFB"/>
<path d="M512.821 6.58492V7.64996V8.715H519.424H526.028V7.64996V6.58492H519.424H512.821Z" fill="#FFFBFB"/>
<path d="M529.436 6.58492V7.64996V8.715H536.039H542.642V7.64996V6.58492H536.039H529.436Z" fill="#FFFBFB"/>
<path d="M546.858 6.58492V7.64996V8.715H553.461H560.064V7.64996V6.58492H553.461H546.858Z" fill="#FFFBFB"/>
<path d="M563.472 6.58492V7.64996V8.715H570.076H576.679V7.64996V6.58492H570.076H563.472Z" fill="#FFFBFB"/>
<path d="M580.358 6.58492V7.64996V8.715H586.961H593.564V7.64996V6.58492H586.961H580.358Z" fill="#FFFBFB"/>
<path d="M596.972 6.58492V7.64996V8.715H603.576H610.179V7.64996V6.58492H603.576H596.972Z" fill="#FFFBFB"/>
<path d="M614.179 6.58492V7.64996V8.715H620.782H627.385V7.64996V6.58492H620.782H614.179Z" fill="#FFFBFB"/>
<path d="M630.794 6.58492V7.64996V8.715H637.397H644V7.64996V6.58492H637.397H630.794Z" fill="#FFFBFB"/>
<path d="M648.5 6.58492V7.64996V8.715H655.103H661.706V7.64996V6.58492H655.103H648.5Z" fill="#FFFBFB"/>
<path d="M665.115 6.58492V7.64996V8.715H671.718H678.321V7.64996V6.58492H671.718H665.115Z" fill="#FFFBFB"/>
<path d="M682.321 6.58492V7.64996V8.715H688.924H695.528V7.64996V6.58492H688.924H682.321Z" fill="#FFFBFB"/>
<path d="M698.936 6.58492V7.64996V8.715H705.539H712.142V7.64996V6.58492H705.539H698.936Z" fill="#FFFBFB"/>
<path d="M716.358 6.58492V7.64996V8.715H722.961H729.564V7.64996V6.58492H722.961H716.358Z" fill="#FFFBFB"/>
<path d="M732.972 6.58492V7.64996V8.715H739.576H746.179V7.64996V6.58492H739.576H732.972Z" fill="#FFFBFB"/>
<path d="M749.858 6.58492V7.64996V8.715H756.461H763.064V7.64996V6.58492H756.461H749.858Z" fill="#FFFBFB"/>
<path d="M766.472 6.58492V7.64996V8.715H773.076H779.679V7.64996V6.58492H773.076H766.472Z" fill="#FFFBFB"/>
<path d="M783.679 6.58492V7.64996V8.715H790.282H796.885V7.64996V6.58492H790.282H783.679Z" fill="#FFFBFB"/>
<path d="M800.294 6.58492V7.64996V8.715H806.897H813.5V7.64996V6.58492H806.897H800.294Z" fill="#FFFBFB"/>
<path d="M817.436 6.58492V7.64996V8.715H824.039H830.642V7.64996V6.58492H824.039H817.436Z" fill="#FFFBFB"/>
<path d="M834.858 6.58492V7.64996V8.715H841.461H848.064V7.64996V6.58492H841.461H834.858Z" fill="#FFFBFB"/>
<path d="M851.472 6.58492V7.64996V8.715H858.076H864.679V7.64996V6.58492H858.076H851.472Z" fill="#FFFBFB"/>
<path d="M868.358 6.58492V7.64996V8.715H874.961H881.564V7.64996V6.58492H874.961H868.358Z" fill="#FFFBFB"/>
<path d="M884.972 6.58492V7.64996V8.715H891.576H898.179V7.64996V6.58492H891.576H884.972Z" fill="#FFFBFB"/>
<path d="M902.179 6.58492V7.64996V8.715H908.782H915.385V7.64996V6.58492H908.782H902.179Z" fill="#FFFBFB"/>
<path d="M918.794 6.58492V7.64996V8.715H925.397H932V7.64996V6.58492H925.397H918.794Z" fill="#FFFBFB"/>
</svg>
